<svg width="45" height="30" viewBox="0 0 45 30" fill="none" xmlns="http://www.w3.org/2000/svg">
<path d="M34.4703 18V17.2941C32.089 17.0588 30.0053 16.1765 28.2192 14.6471C26.4332 13 25.5402 11.0588 25.5402 8.82353C25.5402 6.47059 26.3737 4.41177 28.0406 2.64707C29.7076 0.882355 31.9104 0 34.6489 0C37.5066 0 39.8284 1.2353 41.6144 3.70589C43.5195 6.17648 44.4721 9.2353 44.4721 12.8824C44.4721 16.5294 42.8051 20.2941 39.4712 24.1765C36.2563 28.0588 32.982 30 29.6481 30C28.5764 30 28.0406 29.8235 28.0406 29.4706C28.0406 29.1176 28.2788 28.9412 28.755 28.9412C29.2313 28.9412 30.1243 28.0588 31.4341 26.2941C33.4582 23.7059 34.4703 20.9412 34.4703 18ZM8.93014 18V17.2941C6.54877 17.0588 4.46507 16.1765 2.67904 14.6471C0.893011 13 0 11.0588 0 8.82353C0 6.47059 0.773947 4.41177 2.32184 2.64707C3.9888 0.882355 6.19156 0 8.93014 0C11.7878 0 14.1692 1.2353 16.0743 3.70589C17.9793 6.17648 18.9319 9.2353 18.9319 12.8824C18.9319 16.5294 17.2649 20.2941 13.931 24.1765C10.5971 28.0588 7.26318 30 3.92926 30C2.97672 30 2.50044 29.8235 2.50044 29.4706C2.50044 29.1176 2.6195 28.9412 2.85764 28.9412C3.57205 28.9412 4.58414 28.0588 5.89389 26.2941C7.91805 23.5882 8.93014 20.8235 8.93014 18Z" fill="#004569"/>
</svg>
