<svg width="45" height="30" viewBox="0 0 45 30" fill="none" xmlns="http://www.w3.org/2000/svg">
<path d="M10.302 12V12.7059C12.7549 12.9412 14.9012 13.8824 16.7408 15.5294C18.5805 17.0588 19.5003 19 19.5003 21.3529C19.5003 23.5882 18.6418 25.5882 16.9248 27.3529C15.2078 29.1176 12.8775 30 9.9341 30C7.11331 30 4.72177 28.7647 2.75947 26.2941C0.919824 23.8235 0 20.7647 0 17.1176C0 13.4706 1.65568 9.70589 4.96705 5.82354C8.40106 1.94118 11.8351 0 15.2691 0C16.3729 0 16.9248 0.176472 16.9248 0.529415C16.9248 0.882359 16.6795 1.05883 16.1889 1.05883C15.6983 1.05883 14.7785 1.94118 13.4294 3.70589C11.3445 6.29412 10.302 9.05883 10.302 12Z" fill="#004569"/>
<path d="M35.2738 12V12.7059C37.7267 12.9412 39.873 13.8824 41.7126 15.5294C43.5522 17.0588 44.4721 19 44.4721 21.3529C44.4721 23.5882 43.6136 25.5882 41.8966 27.3529C40.1796 29.1176 37.8493 30 34.9059 30C32.0851 30 29.6936 28.7647 27.7313 26.2941C25.8916 23.8235 24.9718 20.7647 24.9718 17.1176C24.9718 13.4706 26.6275 9.70589 29.9388 5.82354C33.3729 1.94118 36.8069 0 40.2409 0C41.3447 0 41.8966 0.176472 41.8966 0.529415C41.8966 0.882359 41.6513 1.05883 41.1607 1.05883C40.6701 1.05883 39.7503 1.94118 38.4012 3.70589C36.3163 6.29412 35.2738 9.05883 35.2738 12Z" fill="#004569"/>
</svg>
